<?xml version="1.0" standalone="no"?>
<!DOCTYPE svg PUBLIC "-//W3C//DTD SVG 20010904//EN"
 "http://www.w3.org/TR/2001/REC-SVG-20010904/DTD/svg10.dtd">
<svg version="1.0" xmlns="http://www.w3.org/2000/svg"
 width="512.000000pt" height="512.000000pt" viewBox="0 0 512.000000 512.000000"
 preserveAspectRatio="xMidYMid meet">
<metadata>
Created by potrace 1.11, written by Peter Selinger 2001-2013
</metadata>
<g transform="translate(0.000000,512.000000) scale(0.100000,-0.100000)"
fill="#000000" stroke="none">
<path d="M875 5109 c-453 -57 -808 -416 -864 -874 -8 -62 -11 -583 -11 -1685
0 -1712 0 -1690 51 -1855 92 -297 347 -552 644 -644 165 -51 142 -51 1865 -51
1723 0 1700 0 1865 51 297 92 552 347 644 644 51 165 51 142 51 1865 0 1723 0
1700 -51 1865 -92 297 -347 552 -644 644 -165 52 -141 51 -1870 50 -885 -1
-1641 -5 -1680 -10z m2010 -308 c938 -140 1678 -826 1889 -1751 37 -161 49
-276 49 -485 1 -378 -62 -657 -223 -993 -111 -231 -230 -400 -409 -586 -196
-202 -388 -341 -636 -462 -340 -165 -618 -228 -1000 -227 -209 0 -324 12 -485
49 -756 172 -1364 704 -1635 1429 -92 245 -135 495 -135 782 0 377 67 669 229
998 121 245 245 419 431 605 186 186 360 310 605 431 225 111 441 177 695 214
140 21 473 18 625 -4z"/>
<path d="M2360 4694 c-100 -10 -285 -46 -397 -78 -344 -99 -650 -281 -914
-545 -320 -319 -519 -702 -601 -1154 -30 -165 -32 -526 -5 -688 39 -231 107
-442 209 -641 531 -1046 1801 -1470 2853 -953 1023 502 1475 1715 1029 2761
-288 678 -896 1154 -1634 1279 -92 16 -441 28 -540 19z m994 -706 c19 -29 45
-80 56 -113 21 -60 39 -205 26 -205 -4 0 -18 12 -31 28 -27 31 -37 26 -55 -33
-20 -62 -125 -264 -170 -325 -81 -110 -77 -96 -39 -136 66 -68 50 -76 265 137
107 106 194 199 194 206 0 8 -16 23 -35 34 -19 12 -35 23 -35 25 0 2 33 13 73
24 39 12 110 35 157 52 47 16 95 32 108 35 l22 5 -19 -45 c-20 -47 -71 -200
-91 -276 l-12 -44 -21 38 c-12 21 -27 40 -32 42 -6 2 -99 -86 -208 -195 l-198
-198 38 -47 c21 -26 44 -47 51 -47 8 0 39 20 71 44 93 72 251 156 359 191 29
10 52 21 52 27 0 5 -11 19 -25 32 -33 31 -32 36 8 36 100 0 237 -48 307 -109
l35 -30 -42 -1 c-208 -2 -522 -139 -735 -322 l-56 -48 -55 77 c-93 133 -50
152 -376 -167 -156 -153 -280 -283 -277 -289 6 -8 598 -551 901 -825 184 -167
341 -310 368 -336 l29 -27 -26 -51 c-27 -53 -82 -105 -127 -121 -26 -9 -39 4
-401 396 -205 224 -378 411 -383 417 -6 6 -106 116 -224 244 -117 128 -217
232 -222 230 -5 -2 -237 -230 -516 -508 -280 -278 -575 -570 -656 -650 l-147
-145 -52 52 -52 52 34 31 c19 17 317 313 663 657 l628 626 -83 85 c-136 138
-297 280 -344 302 -39 19 -60 21 -211 21 -128 -1 -181 2 -223 15 -230 67 -453
293 -549 556 -53 143 -69 327 -35 406 50 121 188 167 385 128 192 -39 348
-125 500 -276 95 -94 112 -115 152 -200 61 -127 71 -184 63 -345 -7 -156 -1
-183 61 -266 57 -75 331 -359 347 -359 6 0 139 127 294 283 l283 283 -38 35
c-21 19 -64 52 -95 73 l-57 39 32 39 c119 146 218 305 270 439 31 76 67 225
67 272 0 30 9 77 15 77 1 0 19 -24 39 -52z"/>
</g>
</svg>
